<?xml version="1.0" standalone="no"?>
<!DOCTYPE svg PUBLIC "-//W3C//DTD SVG 20010904//EN"
 "http://www.w3.org/TR/2001/REC-SVG-20010904/DTD/svg10.dtd">
<svg version="1.0" xmlns="http://www.w3.org/2000/svg"
 width="64.000000pt" height="64.000000pt" viewBox="0 0 64.000000 64.000000"
 preserveAspectRatio="xMidYMid meet">

<g transform="translate(0.000000,64.000000) scale(0.100000,-0.100000)"
fill="#fff" stroke="none">
<path d="M487 589 c-63 -15 -133 -56 -173 -102 -22 -24 -54 -52 -72 -62 -64
-38 -109 -131 -119 -248 l-6 -68 -29 27 c-22 22 -31 25 -40 16 -10 -10 -1 -24
40 -65 l52 -52 52 52 c41 41 50 55 40 65 -9 9 -19 5 -43 -18 l-32 -29 6 65 c8
88 21 129 59 181 31 42 33 43 36 19 11 -90 78 -133 151 -96 75 39 63 152 -19
177 l-40 12 21 23 c28 30 105 62 171 72 37 5 53 12 53 22 0 18 -53 23 -108 9z
m-87 -189 c11 -11 20 -29 20 -40 0 -11 -9 -29 -20 -40 -52 -52 -125 14 -90 81
14 25 64 25 90 -1z"/>
</g>
</svg>
